<?xml version="1.0" encoding="UTF-8" standalone="no"?> <!-- Created with Vectornator for iOS (http://vectornator.io/) --><!DOCTYPE svg PUBLIC "-//W3C//DTD SVG 1.1//EN" "http://www.w3.org/Graphics/SVG/1.1/DTD/svg11.dtd">
<svg height="100%" style="fill-rule:nonzero;clip-rule:evenodd;stroke-linecap:round;stroke-linejoin:round;" xmlns:xlink="http://www.w3.org/1999/xlink" xmlns="http://www.w3.org/2000/svg" xml:space="preserve" width="100%" xmlns:vectornator="http://vectornator.io" version="1.1" viewBox="0 0 580.101 455.488">
<metadata>
<vectornator:setting key="DimensionsVisible" value="1"/>
<vectornator:setting key="PencilOnly" value="0"/>
<vectornator:setting key="SnapToPoints" value="0"/>
<vectornator:setting key="GuidesVisible" value="1"/>
<vectornator:setting key="CMYKEnabledKey" value="0"/>
<vectornator:setting key="RulersVisible" value="1"/>
<vectornator:setting key="SnapToEdges" value="0"/>
<vectornator:setting key="OutlineMode" value="0"/>
<vectornator:setting key="DisplayWhiteBackground" value="0"/>
<vectornator:setting key="doHistoryDisabled" value="0"/>
<vectornator:setting key="SnapToGuides" value="1"/>
<vectornator:setting key="TimeLapseWatermarkDisabled" value="0"/>
<vectornator:setting key="DynamicGuides" value="0"/>
<vectornator:setting key="SnapToGrid" value="0"/>
<vectornator:setting key="IsolateActiveLayer" value="0"/>
<vectornator:setting key="Units" value="Points"/>
</metadata>
<defs/>
<g id="Untitled" vectornator:layerName="Untitled">
<path d="M450.693+370.776L135.537+370.776C126.651+370.765+119.45+363.169+119.44+353.796L119.44+107.134C119.45+97.7605+126.651+90.1644+135.537+90.1538L450.693+90.1538C459.579+90.1644+466.78+97.7605+466.79+107.134L466.79+353.796C466.78+363.169+459.579+370.765+450.693+370.776Z" opacity="1" fill="#ffffff"/>
<path d="M176.333+251.752L237.282+252.807L272.782+252.807C276.056+252.803+278.709+250.005+278.713+246.552L278.713+244.365L248.143+209.691C247.047+208.447+245.518+207.727+243.908+207.696C242.298+207.666+240.746+208.327+239.607+209.527L209.542+241.243C207.888+242.985+205.21+242.986+203.554+241.246L199.104+236.559C196.786+234.121+193.034+234.123+190.719+236.564L176.333+251.752Z" opacity="1" fill="#303d57"/>
<path d="M450.693+370.776L135.537+370.776C126.651+370.765+119.45+363.169+119.44+353.796L119.44+107.134C119.45+97.7605+126.651+90.1644+135.537+90.1538L450.693+90.1538C459.579+90.1644+466.78+97.7605+466.79+107.134L466.79+353.796C466.78+363.169+459.579+370.765+450.693+370.776ZM135.537+95.516C129.457+95.5233+124.53+100.721+124.523+107.134L124.523+353.796C124.53+360.209+129.457+365.406+135.537+365.414L450.693+365.414C456.773+365.407+461.7+360.209+461.707+353.796L461.707+107.134C461.7+100.721+456.773+95.5232+450.693+95.516L135.537+95.516Z" opacity="1" fill="#3f3d56"/>
<path d="M415.111+133.945L171.119+133.945C168.312+133.945+166.036+131.544+166.036+128.583C166.036+125.621+168.312+123.221+171.119+123.221L415.111+123.221C417.918+123.221+420.194+125.621+420.194+128.583C420.194+131.544+417.918+133.945+415.111+133.945Z" opacity="1" fill="#3f3d56"/>
<path d="M415.958+163.437L171.966+163.437C169.159+163.437+166.883+161.037+166.883+158.075C166.883+155.114+169.159+152.713+171.966+152.713L415.958+152.713C418.765+152.713+421.041+155.114+421.041+158.075C421.041+161.037+418.765+163.437+415.958+163.437Z" opacity="1" fill="#3f3d56"/>
<path d="M416.805+192.929L299.893+192.929C297.085+192.929+294.809+190.529+294.809+187.567C294.809+184.606+297.085+182.205+299.893+182.205L416.805+182.205C419.613+182.205+421.888+184.606+421.888+187.567C421.888+190.529+419.613+192.929+416.805+192.929Z" opacity="1" fill="#3f3d56"/>
<path d="M417.653+222.422L300.74+222.422C297.932+222.422+295.657+220.021+295.657+217.059C295.657+214.098+297.932+211.697+300.74+211.697L417.653+211.697C420.46+211.697+422.736+214.098+422.736+217.059C422.736+220.021+420.46+222.422+417.653+222.422Z" opacity="1" fill="#3f3d56"/>
<path d="M418.5+251.914L301.587+251.914C298.78+251.914+296.504+249.513+296.504+246.552C296.504+243.59+298.78+241.189+301.587+241.189L418.5+241.189C421.307+241.189+423.583+243.59+423.583+246.552C423.583+249.513+421.307+251.914+418.5+251.914Z" opacity="1" fill="#3f3d56"/>
<path d="M419.347+281.406L175.355+281.406C172.548+281.406+170.272+279.005+170.272+276.044C170.272+273.082+172.548+270.681+175.355+270.681L419.347+270.681C422.154+270.681+424.43+273.082+424.43+276.044C424.43+279.005+422.154+281.406+419.347+281.406Z" opacity="1" fill="#3f3d56"/>
<path d="M420.194+310.898L176.202+310.898C173.395+310.898+171.119+308.497+171.119+305.536C171.119+302.574+173.395+300.174+176.202+300.174L420.194+300.174C423.001+300.174+425.277+302.574+425.277+305.536C425.277+308.497+423.001+310.898+420.194+310.898Z" opacity="1" fill="#3f3d56"/>
<path d="M421.041+340.39L177.049+340.39C174.242+340.39+171.966+337.989+171.966+335.028C171.966+332.066+174.242+329.666+177.049+329.666L421.041+329.666C423.849+329.666+426.124+332.066+426.124+335.028C426.124+337.989+423.849+340.39+421.041+340.39Z" opacity="1" fill="#3f3d56"/>
<path d="M272.782+253.701L177.897+253.701C176.484+253.705+175.094+253.33+173.857+252.611L173.834+252.611L173.403+252.337C170.924+250.709+169.419+247.845+169.425+244.764L169.425+191.142C169.43+186.209+173.22+182.211+177.897+182.205L272.782+182.205C277.459+182.211+281.249+186.209+281.254+191.142L281.254+244.764C281.249+249.698+277.459+253.695+272.782+253.701ZM174.992+249.16L175.235+249.318C176.03+249.851+176.954+250.131+177.897+250.126L272.782+250.126C275.588+250.123+277.862+247.724+277.865+244.764L277.865+191.142C277.862+188.182+275.588+185.783+272.782+185.78L177.897+185.78C175.091+185.783+172.817+188.182+172.813+191.142L172.813+244.764C172.811+246.518+173.625+248.161+174.992+249.16Z" opacity="1" fill="#3f3d56"/>
<path d="M657.448+302.763L720.095+286.456L720.909+286.245C721.755+286.023+722.632+286.406+723.165+287.229C723.697+288.053+723.792+289.172+723.408+290.108L712.084+317.857L698.535+351.061C698.208+351.856+697.581+352.409+696.855+352.545C696.126+352.682+695.388+352.376+694.882+351.728L677.605+329.747C677.357+329.422+677.007+329.238+676.642+329.239C676.14+329.23+675.676+329.556+675.434+330.086L671.895+337.984C671.431+339.068+670.414+339.63+669.43+339.347L669.412+339.343C668.417+339.088+667.695+338.044+667.665+336.816L666.957+318.584C666.948+318.356+666.901+318.133+666.818+317.929C666.729+317.726+666.609+317.546+666.463+317.399L656.496+307.527C655.828+306.865+655.532+305.799+655.734+304.785C655.937+303.77+656.603+302.985+657.448+302.763L657.448+302.763Z" opacity="1" fill="#e6e6e6"/>
<path d="M678.896+331.12L741.543+314.813L742.357+314.602C743.203+314.38+744.08+314.763+744.612+315.586C745.145+316.41+745.24+317.529+744.856+318.465L719.982+379.418C719.656+380.213+719.029+380.766+718.303+380.902C717.574+381.039+716.836+380.733+716.33+380.085L699.053+358.104C698.805+357.78+698.455+357.595+698.089+357.596C697.588+357.587+697.124+357.913+696.882+358.443L693.343+366.341C692.878+367.425+691.862+367.987+690.878+367.704L690.86+367.7C689.864+367.445+689.142+366.401+689.113+365.173L688.404+346.941C688.396+346.713+688.349+346.49+688.266+346.286C688.177+346.083+688.057+345.903+687.911+345.757L677.944+335.884C677.275+335.222+676.98+334.157+677.182+333.142C677.385+332.127+678.051+331.342+678.896+331.12L678.896+331.12Z" opacity="1" fill="#cccccc"/>
<path d="M-151.93+67.0338C-152.913+66.0115-154.387+65.6292-155.743+66.0452C-157.098+66.4613-158.104+67.6048-158.344+69.0023L-161.48+89.7092C-161.529+90.0144-161.638+90.3068-161.8+90.5699C-161.971+90.8275-162.194+91.0473-162.453+91.2155L-183.3+104.811C-184.714+105.684-185.332+107.422-184.786+108.991L-184.777+109.019C-184.255+110.596-182.733+111.62-181.076+111.509L-168.773+110.975C-167.949+110.943-167.173+111.363-166.749+112.071C-166.438+112.578-166.357+113.193-166.527+113.764L-177.691+153.024C-178.022+154.178-177.752+155.422-176.973+156.336C-176.186+157.257-175.005+157.745-173.798+157.649L-80.9295+150.135C-80.0903+150.069-79.2971+149.725-78.6768+149.156C-77.9567+148.499-77.5328+147.579-77.5013+146.605C-77.4699+145.631-77.8336+144.685-78.5098+143.983L-79.4512+142.996C-79.4512+142.996-151.93+67.0338-151.93+67.0338Z" opacity="1" fill="#e6e6e6"/>
<path d="M-142.422+80.2773C-143.405+79.255-144.879+78.8727-146.234+79.2888C-147.59+79.7048-148.596+80.8484-148.836+82.2459L-151.972+102.953C-152.021+103.258-152.13+103.55-152.292+103.813C-152.463+104.071-152.685+104.291-152.945+104.459L-173.791+118.054C-175.205+118.927-175.823+120.665-175.278+122.235L-175.269+122.262C-174.747+123.839-173.225+124.864-171.568+124.753L-159.265+124.219C-158.441+124.186-157.665+124.606-157.241+125.314C-156.93+125.821-156.849+126.437-157.019+127.007L-168.183+166.267C-168.514+167.422-168.244+168.666-167.464+169.579C-166.678+170.501-165.497+170.989-164.29+170.892L-71.4213+163.378C-70.5821+163.313-69.7889+162.968-69.1686+162.399C-68.4485+161.742-68.0246+160.822-67.9931+159.848C-67.9617+158.874-68.3254+157.929-69.0016+157.227L-69.943+156.239C-69.943+156.239-142.422+80.2773-142.422+80.2773Z" opacity="1" fill="#cccccc"/>
</g>
</svg>
