<?xml version="1.0" encoding="UTF-8" standalone="no"?> <!-- Created with Vectornator for iOS (http://vectornator.io/) --><!DOCTYPE svg PUBLIC "-//W3C//DTD SVG 1.1//EN" "http://www.w3.org/Graphics/SVG/1.1/DTD/svg11.dtd">
<svg height="100%" style="fill-rule:nonzero;clip-rule:evenodd;stroke-linecap:round;stroke-linejoin:round;" xmlns:xlink="http://www.w3.org/1999/xlink" xmlns="http://www.w3.org/2000/svg" xml:space="preserve" width="100%" xmlns:vectornator="http://vectornator.io" version="1.1" viewBox="0 0 830.567 711.727">
<metadata>
<vectornator:setting key="DimensionsVisible" value="1"/>
<vectornator:setting key="PencilOnly" value="0"/>
<vectornator:setting key="SnapToPoints" value="0"/>
<vectornator:setting key="OutlineMode" value="0"/>
<vectornator:setting key="CMYKEnabledKey" value="0"/>
<vectornator:setting key="GuidesVisible" value="1"/>
<vectornator:setting key="SnapToEdges" value="0"/>
<vectornator:setting key="RulersVisible" value="1"/>
<vectornator:setting key="DisplayWhiteBackground" value="0"/>
<vectornator:setting key="doHistoryDisabled" value="0"/>
<vectornator:setting key="SnapToGuides" value="1"/>
<vectornator:setting key="TimeLapseWatermarkDisabled" value="0"/>
<vectornator:setting key="Units" value="Points"/>
<vectornator:setting key="IsolateActiveLayer" value="0"/>
<vectornator:setting key="SnapToGrid" value="0"/>
<vectornator:setting key="DynamicGuides" value="0"/>
</metadata>
<defs/>
<g id="Untitled" vectornator:layerName="Untitled">
<path d="M274.379+266.759L661.031+266.759L661.031+393.69L646.385+393.69L646.385+426.887L613.188+393.69L274.379+393.69L274.379+266.759Z" opacity="1" fill="#e6e6e6"/>
<path d="M285.119+279.119L650.29+279.119L650.29+279.119L650.29+380.664L650.29+380.664L285.119+380.664L285.119+380.664L285.119+279.119L285.119+279.119Z" opacity="1" fill="#ffffff"/>
<path d="M314.484+308.766L490.305+308.766L490.305+308.766L490.305+314.102L490.305+314.102L314.484+314.102L314.484+314.102L314.484+308.766L314.484+308.766Z" opacity="1" fill="#303d57"/>
<path d="M314.484+327.224L620.925+327.224L620.925+327.224L620.925+332.56L620.925+332.56L314.484+332.56L314.484+332.56L314.484+327.224L314.484+327.224Z" opacity="1" fill="#e6e6e6"/>
<path d="M314.042+345.682L620.183+345.682L620.183+345.682L620.183+351.018L620.183+351.018L314.042+351.018L314.042+351.018L314.042+345.682L314.042+345.682Z" opacity="1" fill="#e6e6e6"/>
<path d="M592.683+436.651L206.031+436.651L206.031+563.583L220.677+563.583L220.677+596.78L253.874+563.583L592.683+563.583L592.683+436.651Z" opacity="1" fill="#e6e6e6"/>
<path d="M215.082+449.012L581.943+449.012L581.943+449.012L581.943+550.557L581.943+550.557L215.082+550.557L215.082+550.557L215.082+449.012L215.082+449.012Z" opacity="1" fill="#ffffff"/>
<path d="M249.066+479.635L424.887+479.635L424.887+479.635L424.887+484.971L424.887+484.971L249.066+484.971L249.066+484.971L249.066+479.635L249.066+479.635Z" opacity="1" fill="#303d57"/>
<path d="M249.066+498.093L555.507+498.093L555.507+498.093L555.507+503.429L555.507+503.429L249.066+503.429L249.066+503.429L249.066+498.093L249.066+498.093Z" opacity="1" fill="#e6e6e6"/>
<path d="M249.066+516.551L555.207+516.551L555.207+516.551L555.207+521.887L555.207+521.887L249.066+521.887L249.066+521.887L249.066+516.551L249.066+516.551Z" opacity="1" fill="#e6e6e6"/>
<path d="M592.683+96.8658L206.031+96.8658L206.031+223.797L220.677+223.797L220.677+256.995L253.874+223.797L592.683+223.797L592.683+96.8658Z" opacity="1" fill="#e6e6e6"/>
<path d="M216.771+109.227L581.943+109.227L581.943+109.227L581.943+210.772L581.943+210.772L216.771+210.772L216.771+210.772L216.771+109.227L216.771+109.227Z" opacity="1" fill="#ffffff"/>
<path d="M249.066+139.85L424.887+139.85L424.887+139.85L424.887+145.185L424.887+145.185L249.066+145.185L249.066+145.185L249.066+139.85L249.066+139.85Z" opacity="1" fill="#303d57"/>
<path d="M249.066+158.308L555.507+158.308L555.507+158.308L555.507+163.643L555.507+163.643L249.066+163.643L249.066+163.643L249.066+158.308L249.066+158.308Z" opacity="1" fill="#e6e6e6"/>
<path d="M249.066+176.766L555.207+176.766L555.207+176.766L555.207+182.101L555.207+182.101L249.066+182.101L249.066+182.101L249.066+176.766L249.066+176.766Z" opacity="1" fill="#e6e6e6"/>
<path d="M1035.6+808.593L654.598+808.593C654.045+808.593+653.598+808.146+653.598+807.593C653.598+807.041+654.045+806.593+654.598+806.593L1035.6+806.593C1036.15+806.593+1036.6+807.041+1036.6+807.593C1036.6+808.146+1036.15+808.593+1035.6+808.593Z" opacity="1" fill="#3f3d56"/>
</g>
</svg>
