<?xml version="1.0" encoding="UTF-8" standalone="no"?> <!-- Created with Vectornator for iOS (http://vectornator.io/) --><!DOCTYPE svg PUBLIC "-//W3C//DTD SVG 1.1//EN" "http://www.w3.org/Graphics/SVG/1.1/DTD/svg11.dtd">
<svg height="100%" style="fill-rule:nonzero;clip-rule:evenodd;stroke-linecap:round;stroke-linejoin:round;" xmlns:xlink="http://www.w3.org/1999/xlink" xmlns="http://www.w3.org/2000/svg" xml:space="preserve" width="100%" xmlns:vectornator="http://vectornator.io" version="1.1" viewBox="0 0 580.101 455.488">
<metadata>
<vectornator:setting key="DimensionsVisible" value="1"/>
<vectornator:setting key="PencilOnly" value="0"/>
<vectornator:setting key="SnapToPoints" value="0"/>
<vectornator:setting key="OutlineMode" value="0"/>
<vectornator:setting key="CMYKEnabledKey" value="0"/>
<vectornator:setting key="RulersVisible" value="1"/>
<vectornator:setting key="SnapToEdges" value="0"/>
<vectornator:setting key="GuidesVisible" value="1"/>
<vectornator:setting key="DisplayWhiteBackground" value="0"/>
<vectornator:setting key="doHistoryDisabled" value="0"/>
<vectornator:setting key="SnapToGuides" value="1"/>
<vectornator:setting key="TimeLapseWatermarkDisabled" value="0"/>
<vectornator:setting key="Units" value="Points"/>
<vectornator:setting key="SnapToGrid" value="0"/>
<vectornator:setting key="DynamicGuides" value="0"/>
<vectornator:setting key="IsolateActiveLayer" value="0"/>
</metadata>
<defs/>
<g id="Untitled" vectornator:layerName="Untitled">
<path d="M552.722+455.315L26.7767+455.315C11.9477+455.298-0.0692877+442.96-0.0861331+427.734L-0.0861331+27.0915C-0.0692882+11.8664+11.9477-0.471676+26.7767-0.488969L552.722-0.488969C567.551-0.471676+579.568+11.8664+579.585+27.0915L579.585+427.734C579.568+442.96+567.551+455.298+552.722+455.315Z" opacity="1" fill="#ffffff"/>
<path d="M95.5154+261.989L197.092+263.703L256.256+263.703C261.712+263.697+266.133+259.151+266.14+253.542L266.14+249.991L215.193+193.67C213.366+191.65+210.818+190.481+208.135+190.431C205.452+190.381+202.865+191.455+200.967+193.405L150.862+244.92C148.105+247.749+143.641+247.751+140.882+244.924L133.466+237.312C129.602+233.352+123.35+233.355+119.49+237.319L95.5154+261.989Z" opacity="1" fill="#303d57"/>
<path d="M552.759+455.315L27.5255+455.315C12.7167+455.298+0.715938+442.96+0.699116+427.734L0.699116+27.0915C0.715938+11.8664+12.7167-0.471676+27.5255-0.488969L552.759-0.488969C567.568-0.471676+579.568+11.8664+579.585+27.0915L579.585+427.734C579.568+442.96+567.568+455.298+552.759+455.315ZM27.5255+8.22066C17.3932+8.23256+9.1822+16.6744+9.17062+27.0915L9.17062+427.734C9.18221+438.152+17.3932+446.593+27.5255+446.605L552.759+446.605C562.891+446.594+571.102+438.152+571.114+427.734L571.114+27.0915C571.102+16.6743+562.891+8.23244+552.759+8.22066L27.5255+8.22066Z" opacity="1" fill="#3f3d56"/>
<path d="M493.458+70.6397L86.8261+70.6397C82.1474+70.6397+78.3546+66.7402+78.3546+61.93C78.3546+57.1198+82.1474+53.2204+86.8261+53.2204L493.458+53.2204C498.137+53.2204+501.93+57.1198+501.93+61.93C501.93+66.7402+498.137+70.6397+493.458+70.6397Z" opacity="1" fill="#3f3d56"/>
<path d="M494.87+118.543L88.238+118.543C83.5593+118.543+79.7665+114.643+79.7665+109.833C79.7665+105.023+83.5593+101.123+88.238+101.123L494.87+101.123C499.549+101.123+503.342+105.023+503.342+109.833C503.342+114.643+499.549+118.543+494.87+118.543Z" opacity="1" fill="#3f3d56"/>
<path d="M496.282+166.446L301.438+166.446C296.759+166.446+292.966+162.546+292.966+157.736C292.966+152.926+296.759+149.026+301.438+149.026L496.282+149.026C500.961+149.026+504.754+152.926+504.754+157.736C504.754+162.546+500.961+166.446+496.282+166.446Z" opacity="1" fill="#3f3d56"/>
<path d="M497.694+214.349L302.849+214.349C298.171+214.349+294.378+210.449+294.378+205.639C294.378+200.829+298.171+196.929+302.849+196.929L497.694+196.929C502.373+196.929+506.166+200.829+506.166+205.639C506.166+210.449+502.373+214.349+497.694+214.349Z" opacity="1" fill="#3f3d56"/>
<path d="M499.106+262.252L304.261+262.252C299.583+262.252+295.79+258.352+295.79+253.542C295.79+248.732+299.583+244.832+304.261+244.832L499.106+244.832C503.785+244.832+507.577+248.732+507.577+253.542C507.577+258.352+503.785+262.252+499.106+262.252Z" opacity="1" fill="#3f3d56"/>
<path d="M500.518+310.154L93.8857+310.154C89.207+310.154+85.4142+306.255+85.4142+301.445C85.4142+296.635+89.207+292.735+93.8857+292.735L500.518+292.735C505.197+292.735+508.989+296.635+508.989+301.445C508.989+306.255+505.197+310.154+500.518+310.154Z" opacity="1" fill="#3f3d56"/>
<path d="M501.93+358.057L95.2976+358.057C90.6189+358.057+86.8261+354.158+86.8261+349.348C86.8261+344.538+90.6189+340.638+95.2976+340.638L501.93+340.638C506.609+340.638+510.401+344.538+510.401+349.348C510.401+354.158+506.609+358.057+501.93+358.057Z" opacity="1" fill="#3f3d56"/>
<path d="M503.342+405.96L96.7095+405.96C92.0308+405.96+88.238+402.061+88.238+397.251C88.238+392.441+92.0308+388.541+96.7095+388.541L503.342+388.541C508.02+388.541+511.813+392.441+511.813+397.251C511.813+402.061+508.02+405.96+503.342+405.96Z" opacity="1" fill="#3f3d56"/>
<path d="M256.256+265.155L98.1214+265.155C95.7676+265.161+93.4508+264.552+91.389+263.384L91.35+263.384L90.6323+262.939C86.5011+260.295+83.9933+255.642+84.0022+250.639L84.0022+163.542C84.0113+155.529+90.3274+149.036+98.1214+149.026L256.256+149.026C264.05+149.036+270.366+155.529+270.375+163.542L270.375+250.639C270.366+258.652+264.05+265.145+256.256+265.155ZM93.28+257.779L93.6854+258.036C95.0114+258.901+96.551+259.356+98.1214+259.348L256.256+259.348C260.933+259.343+264.722+255.447+264.728+250.639L264.728+163.542C264.722+158.734+260.933+154.838+256.256+154.833L98.1214+154.833C93.4449+154.838+89.6551+158.734+89.6499+163.542L89.6499+250.639C89.646+253.487+91.0029+256.156+93.28+257.779Z" opacity="1" fill="#3f3d56"/>
<path d="M657.448+302.763L720.095+286.456L720.909+286.245C721.755+286.023+722.632+286.406+723.165+287.229C723.697+288.053+723.792+289.172+723.408+290.108L712.084+317.857L698.535+351.061C698.208+351.856+697.581+352.409+696.855+352.545C696.126+352.682+695.388+352.376+694.882+351.728L677.605+329.747C677.357+329.422+677.007+329.238+676.642+329.239C676.14+329.23+675.676+329.556+675.434+330.086L671.895+337.984C671.431+339.068+670.414+339.63+669.43+339.347L669.412+339.343C668.417+339.088+667.695+338.044+667.665+336.816L666.957+318.584C666.948+318.356+666.901+318.133+666.818+317.929C666.729+317.726+666.609+317.546+666.463+317.399L656.496+307.527C655.828+306.865+655.532+305.799+655.734+304.785C655.937+303.77+656.603+302.985+657.448+302.763L657.448+302.763Z" opacity="1" fill="#e6e6e6"/>
<path d="M678.896+331.12L741.543+314.813L742.357+314.602C743.203+314.38+744.08+314.763+744.612+315.586C745.145+316.41+745.24+317.529+744.856+318.465L719.982+379.418C719.656+380.213+719.029+380.766+718.303+380.902C717.574+381.039+716.836+380.733+716.33+380.085L699.053+358.104C698.805+357.78+698.455+357.595+698.089+357.596C697.588+357.587+697.124+357.913+696.882+358.443L693.343+366.341C692.878+367.425+691.862+367.987+690.878+367.704L690.86+367.7C689.864+367.445+689.142+366.401+689.113+365.173L688.404+346.941C688.396+346.713+688.349+346.49+688.266+346.286C688.177+346.083+688.057+345.903+687.911+345.757L677.944+335.884C677.275+335.222+676.98+334.157+677.182+333.142C677.385+332.127+678.051+331.342+678.896+331.12L678.896+331.12Z" opacity="1" fill="#cccccc"/>
<path d="M-151.93+67.0338C-152.913+66.0115-154.387+65.6292-155.743+66.0452C-157.098+66.4613-158.104+67.6048-158.344+69.0023L-161.48+89.7092C-161.529+90.0144-161.638+90.3068-161.8+90.5699C-161.971+90.8275-162.194+91.0473-162.453+91.2155L-183.3+104.811C-184.714+105.684-185.332+107.422-184.786+108.991L-184.777+109.019C-184.255+110.596-182.733+111.62-181.076+111.509L-168.773+110.975C-167.949+110.943-167.173+111.363-166.749+112.071C-166.438+112.578-166.357+113.193-166.527+113.764L-177.691+153.024C-178.022+154.178-177.752+155.422-176.973+156.336C-176.186+157.257-175.005+157.745-173.798+157.649L-80.9295+150.135C-80.0903+150.069-79.2971+149.725-78.6768+149.156C-77.9567+148.499-77.5328+147.579-77.5013+146.605C-77.4699+145.631-77.8336+144.685-78.5098+143.983L-79.4512+142.996C-79.4512+142.996-151.93+67.0338-151.93+67.0338Z" opacity="1" fill="#e6e6e6"/>
<path d="M-142.422+80.2773C-143.405+79.255-144.879+78.8727-146.234+79.2888C-147.59+79.7048-148.596+80.8484-148.836+82.2459L-151.972+102.953C-152.021+103.258-152.13+103.55-152.292+103.813C-152.463+104.071-152.685+104.291-152.945+104.459L-173.791+118.054C-175.205+118.927-175.823+120.665-175.278+122.235L-175.269+122.262C-174.747+123.839-173.225+124.864-171.568+124.753L-159.265+124.219C-158.441+124.186-157.665+124.606-157.241+125.314C-156.93+125.821-156.849+126.437-157.019+127.007L-168.183+166.267C-168.514+167.422-168.244+168.666-167.464+169.579C-166.678+170.501-165.497+170.989-164.29+170.892L-71.4213+163.378C-70.5821+163.313-69.7889+162.968-69.1686+162.399C-68.4485+161.742-68.0246+160.822-67.9931+159.848C-67.9617+158.874-68.3254+157.929-69.0016+157.227L-69.943+156.239C-69.943+156.239-142.422+80.2773-142.422+80.2773Z" opacity="1" fill="#cccccc"/>
</g>
</svg>
