<?xml version="1.0" encoding="UTF-8" standalone="no"?> <!-- Created with Vectornator for iOS (http://vectornator.io/) --><!DOCTYPE svg PUBLIC "-//W3C//DTD SVG 1.1//EN" "http://www.w3.org/Graphics/SVG/1.1/DTD/svg11.dtd">
<svg height="100%" style="fill-rule:nonzero;clip-rule:evenodd;stroke-linecap:round;stroke-linejoin:round;" xmlns:xlink="http://www.w3.org/1999/xlink" xmlns="http://www.w3.org/2000/svg" xml:space="preserve" width="100%" xmlns:vectornator="http://vectornator.io" version="1.1" viewBox="0 0 580.101 455.488">
<metadata>
<vectornator:setting key="DimensionsVisible" value="1"/>
<vectornator:setting key="PencilOnly" value="0"/>
<vectornator:setting key="SnapToPoints" value="0"/>
<vectornator:setting key="OutlineMode" value="0"/>
<vectornator:setting key="CMYKEnabledKey" value="0"/>
<vectornator:setting key="RulersVisible" value="1"/>
<vectornator:setting key="SnapToEdges" value="0"/>
<vectornator:setting key="GuidesVisible" value="1"/>
<vectornator:setting key="DisplayWhiteBackground" value="0"/>
<vectornator:setting key="doHistoryDisabled" value="0"/>
<vectornator:setting key="SnapToGuides" value="1"/>
<vectornator:setting key="TimeLapseWatermarkDisabled" value="0"/>
<vectornator:setting key="DynamicGuides" value="0"/>
<vectornator:setting key="IsolateActiveLayer" value="0"/>
<vectornator:setting key="SnapToGrid" value="0"/>
<vectornator:setting key="Units" value="Points"/>
</metadata>
<defs/>
<g id="Untitled" vectornator:layerName="Untitled">
<path d="M502.116+424.075L88.362+424.075C76.6963+424.059+67.2426+413.219+67.2294+399.842L67.2294+47.8363C67.2426+34.4595+76.6963+23.6192+88.362+23.604L502.116+23.604C513.782+23.6192+523.235+34.4595+523.249+47.8363L523.249+399.842C523.235+413.219+513.782+424.059+502.116+424.075Z" opacity="1" fill="#ffffff"/>
<path d="M141.921+254.218L221.939+255.724L268.545+255.724C272.843+255.718+276.326+251.724+276.331+246.796L276.331+243.676L236.198+194.193C234.758+192.418+232.751+191.391+230.638+191.347C228.524+191.303+226.486+192.246+224.991+193.96L185.52+239.221C183.348+241.707+179.832+241.709+177.658+239.225L171.816+232.537C168.773+229.057+163.848+229.06+160.808+232.543L141.921+254.218Z" opacity="1" fill="#303d57"/>
<path d="M502.116+424.075L88.362+424.075C76.6963+424.059+67.2426+413.219+67.2294+399.842L67.2294+47.8363C67.2426+34.4595+76.6963+23.6192+88.362+23.604L502.116+23.604C513.782+23.6192+523.235+34.4595+523.249+47.8363L523.249+399.842C523.235+413.219+513.782+424.059+502.116+424.075ZM88.362+31.2563C80.3802+31.2668+73.9119+38.6838+73.9028+47.8363L73.9028+399.842C73.912+408.995+80.3802+416.412+88.362+416.422L502.116+416.422C510.098+416.412+516.566+408.995+516.575+399.842L516.575+47.8363C516.566+38.6837+510.098+31.2667+502.116+31.2563L88.362+31.2563Z" opacity="1" fill="#3f3d56"/>
<path d="M455.402+86.0978L135.076+86.0978C131.39+86.0978+128.403+82.6718+128.403+78.4455C128.403+74.2193+131.39+70.7932+135.076+70.7932L455.402+70.7932C459.087+70.7932+462.075+74.2193+462.075+78.4455C462.075+82.6718+459.087+86.0978+455.402+86.0978Z" opacity="1" fill="#3f3d56"/>
<path d="M456.514+128.185L136.188+128.185C132.503+128.185+129.515+124.759+129.515+120.533C129.515+116.307+132.503+112.881+136.188+112.881L456.514+112.881C460.2+112.881+463.187+116.307+463.187+120.533C463.187+124.759+460.2+128.186+456.514+128.185Z" opacity="1" fill="#3f3d56"/>
<path d="M457.626+170.273L304.137+170.273C300.451+170.273+297.463+166.847+297.463+162.621C297.463+158.395+300.451+154.969+304.137+154.969L457.626+154.969C461.312+154.969+464.3+158.395+464.3+162.621C464.3+166.847+461.312+170.273+457.626+170.273Z" opacity="1" fill="#3f3d56"/>
<path d="M458.738+212.361L305.249+212.361C301.563+212.361+298.576+208.935+298.576+204.709C298.576+200.482+301.563+197.056+305.249+197.056L458.738+197.056C462.424+197.056+465.412+200.482+465.412+204.709C465.412+208.935+462.424+212.361+458.738+212.361Z" opacity="1" fill="#3f3d56"/>
<path d="M459.851+254.449L306.361+254.449C302.676+254.449+299.688+251.022+299.688+246.796C299.688+242.57+302.676+239.144+306.361+239.144L459.851+239.144C463.536+239.144+466.524+242.57+466.524+246.796C466.524+251.022+463.536+254.449+459.851+254.449Z" opacity="1" fill="#3f3d56"/>
<path d="M460.963+296.536L140.637+296.536C136.952+296.536+133.964+293.11+133.964+288.884C133.964+284.658+136.952+281.232+140.637+281.232L460.963+281.232C464.649+281.232+467.636+284.658+467.636+288.884C467.636+293.11+464.649+296.536+460.963+296.536Z" opacity="1" fill="#3f3d56"/>
<path d="M462.075+338.624L141.75+338.624C138.064+338.624+135.076+335.198+135.076+330.972C135.076+326.745+138.064+323.319+141.75+323.319L462.075+323.319C465.761+323.319+468.749+326.745+468.749+330.972C468.749+335.198+465.761+338.624+462.075+338.624Z" opacity="1" fill="#3f3d56"/>
<path d="M463.187+380.712L142.862+380.712C139.176+380.712+136.188+377.285+136.188+373.059C136.188+368.833+139.176+365.407+142.862+365.407L463.187+365.407C466.873+365.407+469.861+368.833+469.861+373.059C469.861+377.285+466.873+380.712+463.187+380.712Z" opacity="1" fill="#3f3d56"/>
<path d="M268.545+256.999L143.974+256.999C142.12+257.005+140.295+256.469+138.671+255.444L138.64+255.444L138.075+255.053C134.82+252.729+132.845+248.641+132.852+244.245L132.852+167.722C132.859+160.682+137.834+154.977+143.974+154.969L268.545+154.969C274.685+154.977+279.66+160.682+279.668+167.722L279.668+244.245C279.66+251.286+274.685+256.991+268.545+256.999ZM140.16+250.519L140.48+250.744C141.524+251.504+142.737+251.905+143.974+251.898L268.545+251.898C272.229+251.893+275.214+248.47+275.219+244.245L275.219+167.722C275.214+163.498+272.229+160.075+268.545+160.07L143.974+160.07C140.29+160.075+137.305+163.498+137.301+167.722L137.301+244.245C137.297+246.748+138.366+249.093+140.16+250.519Z" opacity="1" fill="#3f3d56"/>
<path d="M657.448+302.763L720.095+286.456L720.909+286.245C721.755+286.023+722.632+286.406+723.165+287.229C723.697+288.053+723.792+289.172+723.408+290.108L712.084+317.857L698.535+351.061C698.208+351.856+697.581+352.409+696.855+352.545C696.126+352.682+695.388+352.376+694.882+351.728L677.605+329.747C677.357+329.422+677.007+329.238+676.642+329.239C676.14+329.23+675.676+329.556+675.434+330.086L671.895+337.984C671.431+339.068+670.414+339.63+669.43+339.347L669.412+339.343C668.417+339.088+667.695+338.044+667.665+336.816L666.957+318.584C666.948+318.356+666.901+318.133+666.818+317.929C666.729+317.726+666.609+317.546+666.463+317.399L656.496+307.527C655.828+306.865+655.532+305.799+655.734+304.785C655.937+303.77+656.603+302.985+657.448+302.763L657.448+302.763Z" opacity="1" fill="#e6e6e6"/>
<path d="M678.896+331.12L741.543+314.813L742.357+314.602C743.203+314.38+744.08+314.763+744.612+315.586C745.145+316.41+745.24+317.529+744.856+318.465L719.982+379.418C719.656+380.213+719.029+380.766+718.303+380.902C717.574+381.039+716.836+380.733+716.33+380.085L699.053+358.104C698.805+357.78+698.455+357.595+698.089+357.596C697.588+357.587+697.124+357.913+696.882+358.443L693.343+366.341C692.878+367.425+691.862+367.987+690.878+367.704L690.86+367.7C689.864+367.445+689.142+366.401+689.113+365.173L688.404+346.941C688.396+346.713+688.349+346.49+688.266+346.286C688.177+346.083+688.057+345.903+687.911+345.757L677.944+335.884C677.275+335.222+676.98+334.157+677.182+333.142C677.385+332.127+678.051+331.342+678.896+331.12L678.896+331.12Z" opacity="1" fill="#cccccc"/>
<path d="M-151.93+67.0338C-152.913+66.0115-154.387+65.6292-155.743+66.0452C-157.098+66.4613-158.104+67.6048-158.344+69.0023L-161.48+89.7092C-161.529+90.0144-161.638+90.3068-161.8+90.5699C-161.971+90.8275-162.194+91.0473-162.453+91.2155L-183.3+104.811C-184.714+105.684-185.332+107.422-184.786+108.991L-184.777+109.019C-184.255+110.596-182.733+111.62-181.076+111.509L-168.773+110.975C-167.949+110.943-167.173+111.363-166.749+112.071C-166.438+112.578-166.357+113.193-166.527+113.764L-177.691+153.024C-178.022+154.178-177.752+155.422-176.973+156.336C-176.186+157.257-175.005+157.745-173.798+157.649L-80.9295+150.135C-80.0903+150.069-79.2971+149.725-78.6768+149.156C-77.9567+148.499-77.5328+147.579-77.5013+146.605C-77.4699+145.631-77.8336+144.685-78.5098+143.983L-79.4512+142.996C-79.4512+142.996-151.93+67.0338-151.93+67.0338Z" opacity="1" fill="#e6e6e6"/>
<path d="M-142.422+80.2773C-143.405+79.255-144.879+78.8727-146.234+79.2888C-147.59+79.7048-148.596+80.8484-148.836+82.2459L-151.972+102.953C-152.021+103.258-152.13+103.55-152.292+103.813C-152.463+104.071-152.685+104.291-152.945+104.459L-173.791+118.054C-175.205+118.927-175.823+120.665-175.278+122.235L-175.269+122.262C-174.747+123.839-173.225+124.864-171.568+124.753L-159.265+124.219C-158.441+124.186-157.665+124.606-157.241+125.314C-156.93+125.821-156.849+126.437-157.019+127.007L-168.183+166.267C-168.514+167.422-168.244+168.666-167.464+169.579C-166.678+170.501-165.497+170.989-164.29+170.892L-71.4213+163.378C-70.5821+163.313-69.7889+162.968-69.1686+162.399C-68.4485+161.742-68.0246+160.822-67.9931+159.848C-67.9617+158.874-68.3254+157.929-69.0016+157.227L-69.943+156.239C-69.943+156.239-142.422+80.2773-142.422+80.2773Z" opacity="1" fill="#cccccc"/>
</g>
</svg>
